<svg xmlns="http://www.w3.org/2000/svg" xmlns:xlink="http://www.w3.org/1999/xlink" xmlns:lucid="lucid" width="910" height="783"><g transform="translate(-75 -430)" lucid:page-tab-id="0_0"><path d="M260 530h20v20h-20zM116 500c-8.84 0-16 7.16-16 16v48c0 8.84 7.16 16 16 16h128c8.84 0 16-7.16 16-16v-48c0-8.84-7.16-16-16-16z" stroke="#5e5e5e" stroke-width="3" fill="#fff"/><use xlink:href="#a" transform="matrix(1,0,0,1,108,508) translate(40.580246913580254 23.111111111111114)"/><use xlink:href="#b" transform="matrix(1,0,0,1,108,508) translate(29.53086419753086 49.77777777777778)"/><path d="M282.5 540h44.18" stroke="#5e5e5e" stroke-width="2" fill="none"/><path d="M282.53 541h-1.03v-2h1.03" fill="#5e5e5e"/><path d="M309.32 550.18L326.54 540l-17.22-10.18" stroke="#5e5e5e" stroke-width="2" fill="none"/><path d="M330 530h20v20h-20zM366 500c-8.84 0-16 7.16-16 16v48c0 8.84 7.16 16 16 16h128c8.84 0 16-7.16 16-16v-48c0-8.84-7.16-16-16-16z" stroke="#5e5e5e" stroke-width="3" fill="#fff"/><use xlink:href="#c" transform="matrix(1,0,0,1,358,508) translate(17.12345679012345 23.111111111111114)"/><use xlink:href="#b" transform="matrix(1,0,0,1,358,508) translate(29.53086419753086 49.77777777777778)"/><path d="M510 530h20v20h-20z" stroke="#5e5e5e" stroke-width="3" fill="#fff"/><path d="M568.5 466c0-3.3 2.7-6 6-6h8c3.3 0 6 2.7 6 6v148c0 3.3-2.7 6-6 6h-8c-3.3 0-6-2.7-6-6z" stroke="#5e5e5e" stroke-width="3"/><path d="M531 540h34.18M531.03 540H530M547.82 550.18L565.04 540l-17.22-10.18M591 540h22.25c3.3 0 6-2.7 6-6v-48c0-3.3 2.7-6 6-6h21.43" stroke="#5e5e5e" stroke-width="2" fill="none"/><path d="M591.03 541H590v-2h1.03" fill="#5e5e5e"/><path d="M629.32 490.18L646.54 480l-17.22-10.18M591 540h22.25c3.3 0 6 2.7 6 6v48c0 3.3 2.7 6 6 6h21.43" stroke="#5e5e5e" stroke-width="2" fill="none"/><path d="M591.03 541H590v-2h1.03" fill="#5e5e5e"/><path d="M629.32 610.18L646.54 600l-17.22-10.18" stroke="#5e5e5e" stroke-width="2" fill="none"/><path d="M650 470h20v20h-20zM686 440c-8.84 0-16 7.16-16 16v48c0 8.84 7.16 16 16 16h128c8.84 0 16-7.16 16-16v-48c0-8.84-7.16-16-16-16z" stroke="#5e5e5e" stroke-width="3" fill="#fff"/><use xlink:href="#d" transform="matrix(1,0,0,1,678,448) translate(33.141975308641975 36.44444444444444)"/><path d="M830 470h20v20h-20zM650 590h20v20h-20zM686 560c-8.84 0-16 7.16-16 16v48c0 8.84 7.16 16 16 16h128c8.84 0 16-7.16 16-16v-48c0-8.84-7.16-16-16-16z" stroke="#5e5e5e" stroke-width="3" fill="#fff"/><use xlink:href="#e" transform="matrix(1,0,0,1,678,568) translate(28.79012345679012 36.44444444444444)"/><path d="M830 590h20v20h-20z" stroke="#5e5e5e" stroke-width="3" fill="#fff"/><path d="M908.5 466c0-3.3 2.7-6 6-6h8c3.3 0 6 2.7 6 6v148c0 3.3-2.7 6-6 6h-8c-3.3 0-6-2.7-6-6z" stroke="#5e5e5e" stroke-width="3"/><path d="M851 480h22.25c3.3 0 6 2.7 6 6v8c0 3.3 2.7 6 6 6h21.43M851.03 480H850" stroke="#5e5e5e" stroke-width="2" fill="none"/><path d="M889.32 510.18L906.54 500l-17.22-10.18M852.5 600H874c3.3 0 6-2.7 6-6v-8c0-3.3 2.7-6 6-6h20.68" stroke="#5e5e5e" stroke-width="2" fill="none"/><path d="M852.53 601h-1.03v-2h1.03" fill="#5e5e5e"/><path d="M889.32 590.18L906.54 580l-17.22-10.18M931 540h33c3.3 0 6 2.7 6 6v168c0 3.3-2.7 6-6 6H853.32" stroke="#5e5e5e" stroke-width="2" fill="none"/><path d="M931.03 541H930v-2h1.03" fill="#5e5e5e"/><path d="M870.68 709.82L853.46 720l17.22 10.18" stroke="#5e5e5e" stroke-width="2" fill="none"/><path d="M650 710h20v20h-20zM686 680c-8.84 0-16 7.16-16 16v48c0 8.84 7.16 16 16 16h128c8.84 0 16-7.16 16-16v-48c0-8.84-7.16-16-16-16z" stroke="#5e5e5e" stroke-width="3" fill="#fff"/><use xlink:href="#f" transform="matrix(1,0,0,1,678,688) translate(17.12345679012345 36.44444444444444)"/><path d="M830 710h20v20h-20zM366 680c-8.84 0-16 7.16-16 16v48c0 8.84 7.16 16 16 16h128c8.84 0 16-7.16 16-16v-48c0-8.84-7.16-16-16-16z" stroke="#5e5e5e" stroke-width="3" fill="#fff"/><use xlink:href="#g" transform="matrix(1,0,0,1,358,688) translate(30.086419753086417 23.111111111111114)"/><use xlink:href="#h" transform="matrix(1,0,0,1,358,688) translate(32.58641975308642 49.77777777777778)"/><path d="M510 710h20v20h-20z" stroke="#5e5e5e" stroke-width="3" fill="#fff"/><path d="M647.5 720H533.32" stroke="#5e5e5e" stroke-width="2" fill="none"/><path d="M648.5 721h-1.03v-2h1.03" fill="#5e5e5e"/><path d="M550.68 709.82L533.46 720l17.22 10.18" stroke="#5e5e5e" stroke-width="2" fill="none"/><path d="M260 1050h20v20h-20zM116 1020c-8.84 0-16 7.16-16 16v48c0 8.84 7.16 16 16 16h128c8.84 0 16-7.16 16-16v-48c0-8.84-7.16-16-16-16z" stroke="#5e5e5e" stroke-width="3" fill="#fff"/><use xlink:href="#a" transform="matrix(1,0,0,1,108,1028) translate(40.580246913580254 23.111111111111114)"/><use xlink:href="#b" transform="matrix(1,0,0,1,108,1028) translate(29.53086419753086 49.77777777777778)"/><path d="M282.5 1060h44.18" stroke="#5e5e5e" stroke-width="2" fill="none"/><path d="M282.53 1061h-1.03v-2h1.03" fill="#5e5e5e"/><path d="M309.32 1070.18l17.22-10.18-17.22-10.18" stroke="#5e5e5e" stroke-width="2" fill="none"/><path d="M330 1050h20v20h-20zM366 1020c-8.84 0-16 7.16-16 16v48c0 8.84 7.16 16 16 16h128c8.84 0 16-7.16 16-16v-48c0-8.84-7.16-16-16-16z" stroke="#5e5e5e" stroke-width="3" fill="#fff"/><use xlink:href="#c" transform="matrix(1,0,0,1,358,1028) translate(17.12345679012345 23.111111111111114)"/><use xlink:href="#b" transform="matrix(1,0,0,1,358,1028) translate(29.53086419753086 49.77777777777778)"/><path d="M510 1050h20v20h-20z" stroke="#5e5e5e" stroke-width="3" fill="#fff"/><path d="M568.5 986c0-3.3 2.7-6 6-6h8c3.3 0 6 2.7 6 6v148c0 3.3-2.7 6-6 6h-8c-3.3 0-6-2.7-6-6z" stroke="#5e5e5e" stroke-width="3"/><path d="M531 1060h34.18M531.03 1060H530M547.82 1070.18l17.22-10.18-17.22-10.18M591 1060h55.68" stroke="#5e5e5e" stroke-width="2" fill="none"/><path d="M591.03 1061H590v-2h1.03" fill="#5e5e5e"/><path d="M629.32 1070.18l17.22-10.18-17.22-10.18" stroke="#5e5e5e" stroke-width="2" fill="none"/><path d="M650 1050h20v20h-20zM686 1020c-8.84 0-16 7.16-16 16v48c0 8.84 7.16 16 16 16h128c8.84 0 16-7.16 16-16v-48c0-8.84-7.16-16-16-16z" stroke="#5e5e5e" stroke-width="3" fill="#fff"/><use xlink:href="#d" transform="matrix(1,0,0,1,678,1028) translate(33.141975308641975 36.44444444444444)"/><path d="M830 1050h20v20h-20z" stroke="#5e5e5e" stroke-width="3" fill="#fff"/><path d="M908.5 986c0-3.3 2.7-6 6-6h8c3.3 0 6 2.7 6 6v148c0 3.3-2.7 6-6 6h-8c-3.3 0-6-2.7-6-6z" stroke="#5e5e5e" stroke-width="3"/><path d="M852.5 1060h52.68" stroke="#5e5e5e" stroke-width="2" fill="none"/><path d="M852.53 1061h-1.03v-2h1.03" fill="#5e5e5e"/><path d="M887.82 1070.18l17.22-10.18-17.22-10.18M931 1060h33c3.3 0 6-2.7 6-6V926c0-3.3-2.7-6-6-6H853.32" stroke="#5e5e5e" stroke-width="2" fill="none"/><path d="M931.03 1061H930v-2h1.03" fill="#5e5e5e"/><path d="M870.68 909.82L853.46 920l17.22 10.18" stroke="#5e5e5e" stroke-width="2" fill="none"/><path d="M650 910h20v20h-20zM686 880c-8.84 0-16 7.16-16 16v48c0 8.84 7.16 16 16 16h128c8.84 0 16-7.16 16-16v-48c0-8.84-7.16-16-16-16z" stroke="#5e5e5e" stroke-width="3" fill="#fff"/><use xlink:href="#f" transform="matrix(1,0,0,1,678,888) translate(17.12345679012345 36.44444444444444)"/><path d="M830 910h20v20h-20zM366 880c-8.84 0-16 7.16-16 16v48c0 8.84 7.16 16 16 16h128c8.84 0 16-7.16 16-16v-48c0-8.84-7.16-16-16-16z" stroke="#5e5e5e" stroke-width="3" fill="#fff"/><use xlink:href="#i" transform="matrix(1,0,0,1,358.00000000000006,888) translate(38.7283950617284 36.44444444444444)"/><path d="M510 910h20v20h-20z" stroke="#5e5e5e" stroke-width="3" fill="#fff"/><path d="M647.5 920H533.32" stroke="#5e5e5e" stroke-width="2" fill="none"/><path d="M648.5 921h-1.03v-2h1.03" fill="#5e5e5e"/><path d="M550.68 909.82L533.46 920l17.22 10.18M101 800h10.1m10.08 0h20.2m10.08 0h20.18m10.1 0h20.18m10.1 0h20.18m10.1 0h20.17m10.1 0h20.18m10.1 0H323m10.1 0h20.18m10.1 0h20.17m10.1 0h20.18m10.1 0h20.18m10.1 0h20.17m10.1 0h20.18m10.1 0h20.17m10.1 0h20.18m10.1 0h20.18m10.1 0h20.18m10.1 0h20.18m10.1 0h20.17m10.1 0h20.18m10.1 0h20.2m10.08 0h20.18m10.1 0h20.18m10.1 0h20.17m10.1 0H868m10.08 0h20.18m10.1 0h20.18m10.1 0h20.18m10.1 0H979M101.03 800H100M978.97 800H980M430 762.5v2.88m0 3.83v5.76m0 3.83v5.74m0 3.84v5.75m0 3.83v5.75m0 3.84v5.75m0 3.83V823m0 4v6m0 4v6m0 4v6m0 4v3" stroke="#5e5e5e" stroke-width="2" fill="none"/><path d="M431 762.53h-2v-1.03h2" fill="#5e5e5e"/><path d="M430 875.26L425.36 861h9.28z" stroke="#5e5e5e" stroke-width="2" fill="#5e5e5e"/><path d="M80 826c0-3.3 2.7-6 6-6h228c3.3 0 6 2.7 6 6v48c0 3.3-2.7 6-6 6H86c-3.3 0-6-2.7-6-6z" stroke="#000" stroke-opacity="0" stroke-width="3" fill="#fff" fill-opacity="0"/><use xlink:href="#j" transform="matrix(1,0,0,1,85,825) translate(32.376543209876544 30.27777777777778)"/><use xlink:href="#k" transform="matrix(1,0,0,1,85,825) translate(137.12962962962962 30.27777777777778)"/><path d="M80 436c0-3.3 2.7-6 6-6h228c3.3 0 6 2.7 6 6v48c0 3.3-2.7 6-6 6H86c-3.3 0-6-2.7-6-6z" stroke="#000" stroke-opacity="0" stroke-width="3" fill="#fff" fill-opacity="0"/><use xlink:href="#l" transform="matrix(1,0,0,1,85,435) translate(38.51851851851852 30.27777777777778)"/><use xlink:href="#k" transform="matrix(1,0,0,1,85,435) translate(130.98765432098764 30.27777777777778)"/><path d="M200 661.42c0 11.04-8.95 20-20 20s-20-8.96-20-20c0-11.05 8.95-20 20-20s20 8.95 20 20z" stroke="#5e5e5e" stroke-width="3"/><path d="M180 638.92v-55.6" stroke="#5e5e5e" stroke-width="2" fill="none"/><path d="M181 640.03l-.93-.12-1.07.05v-1.06h2" fill="#5e5e5e"/><path d="M190.18 600.68L180 583.46l-10.18 17.22" stroke="#5e5e5e" stroke-width="2" fill="none"/><path d="M200 1180c0 11.05-8.95 20-20 20s-20-8.95-20-20 8.95-20 20-20 20 8.95 20 20z" stroke="#5e5e5e" stroke-width="3"/><path d="M180 1157.5v-54.18" stroke="#5e5e5e" stroke-width="2" fill="none"/><path d="M181 1158.6l-.93-.1-1.07.03v-1.06h2" fill="#5e5e5e"/><path d="M190.18 1120.68L180 1103.46l-10.18 17.22" stroke="#5e5e5e" stroke-width="2" fill="none"/><path d="M260 720c0 11.05-8.95 20-20 20s-20-8.95-20-20 8.95-20 20-20 20 8.95 20 20z" stroke="#5e5e5e" stroke-width="3" fill="#fff"/><path d="M252 720c0 6.63-5.37 12-12 12s-12-5.37-12-12 5.37-12 12-12 12 5.37 12 12z" stroke="#5e5e5e" stroke-width="3"/><path d="M347.5 720h-84.18" stroke="#5e5e5e" stroke-width="2" fill="none"/><path d="M348.5 721h-1.03v-2h1.03" fill="#5e5e5e"/><path d="M280.68 709.82L263.48 720l17.2 10.18" stroke="#5e5e5e" stroke-width="2" fill="none"/><path d="M260 920c0 11.05-8.95 20-20 20s-20-8.95-20-20 8.95-20 20-20 20 8.95 20 20z" stroke="#5e5e5e" stroke-width="3" fill="#fff"/><path d="M252 920c0 6.63-5.37 12-12 12s-12-5.37-12-12 5.37-12 12-12 12 5.37 12 12z" stroke="#5e5e5e" stroke-width="3"/><path d="M120 941c0-3.3 2.7-6 6-6h228c3.3 0 6 2.7 6 6v48c0 3.3-2.7 6-6 6H126c-3.3 0-6-2.7-6-6z" stroke="#000" stroke-opacity="0" stroke-width="3" fill="#fff" fill-opacity="0"/><g><use xlink:href="#m" transform="matrix(1,0,0,1,125,940) translate(60.154320987654316 30.27777777777778)"/></g><path d="M330 910h20v20h-20z" stroke="#5e5e5e" stroke-width="3" fill="#fff"/><path d="M327.5 920h-64.18" stroke="#5e5e5e" stroke-width="2" fill="none"/><path d="M328.5 921h-1.03v-2h1.03" fill="#5e5e5e"/><path d="M280.68 909.82L263.48 920l17.2 10.18" stroke="#5e5e5e" stroke-width="2" fill="none"/><defs><path fill="#333" d="M114-163C36-179 61-72 57 0H25l-1-190h30c1 12-1 29 2 39 6-27 23-49 58-41v29" id="n"/><path fill="#333" d="M100-194c63 0 86 42 84 106H49c0 40 14 67 53 68 26 1 43-12 49-29l28 8c-11 28-37 45-77 45C44 4 14-33 15-96c1-61 26-98 85-98zm52 81c6-60-76-77-97-28-3 7-6 17-6 28h103" id="o"/><path fill="#333" d="M96-169c-40 0-48 33-48 73s9 75 48 75c24 0 41-14 43-38l32 2c-6 37-31 61-74 61-59 0-76-41-82-99-10-93 101-131 147-64 4 7 5 14 7 22l-32 3c-4-21-16-35-41-35" id="p"/><path fill="#333" d="M100-194c62-1 85 37 85 99 1 63-27 99-86 99S16-35 15-95c0-66 28-99 85-99zM99-20c44 1 53-31 53-75 0-43-8-75-51-75s-53 32-53 75 10 74 51 75" id="q"/><path fill="#333" d="M85-194c31 0 48 13 60 33l-1-100h32l1 261h-30c-2-10 0-23-3-31C134-8 116 4 85 4 32 4 16-35 15-94c0-66 23-100 70-100zm9 24c-40 0-46 34-46 75 0 40 6 74 45 74 42 0 51-32 51-76 0-42-9-74-50-73" id="r"/><g id="a"><use transform="matrix(0.06172839506172839,0,0,0.06172839506172839,0,0)" xlink:href="#n"/><use transform="matrix(0.06172839506172839,0,0,0.06172839506172839,7.345679012345679,0)" xlink:href="#o"/><use transform="matrix(0.06172839506172839,0,0,0.06172839506172839,19.691358024691358,0)" xlink:href="#p"/><use transform="matrix(0.06172839506172839,0,0,0.06172839506172839,30.80246913580247,0)" xlink:href="#q"/><use transform="matrix(0.06172839506172839,0,0,0.06172839506172839,43.148148148148145,0)" xlink:href="#n"/><use transform="matrix(0.06172839506172839,0,0,0.06172839506172839,50.49382716049382,0)" xlink:href="#r"/></g><path fill="#333" d="M24 0v-261h32V0H24" id="s"/><path fill="#333" d="M141-36C126-15 110 5 73 4 37 3 15-17 15-53c-1-64 63-63 125-63 3-35-9-54-41-54-24 1-41 7-42 31l-33-3c5-37 33-52 76-52 45 0 72 20 72 64v82c-1 20 7 32 28 27v20c-31 9-61-2-59-35zM48-53c0 20 12 33 32 33 41-3 63-29 60-74-43 2-92-5-92 41" id="t"/><path fill="#333" d="M24-231v-30h32v30H24zM24 0v-190h32V0H24" id="u"/><path fill="#333" d="M59-47c-2 24 18 29 38 22v24C64 9 27 4 27-40v-127H5v-23h24l9-43h21v43h35v23H59v120" id="v"/><path fill="#333" d="M135-143c-3-34-86-38-87 0 15 53 115 12 119 90S17 21 10-45l28-5c4 36 97 45 98 0-10-56-113-15-118-90-4-57 82-63 122-42 12 7 21 19 24 35" id="w"/><g id="b"><use transform="matrix(0.06172839506172839,0,0,0.06172839506172839,0,0)" xlink:href="#s"/><use transform="matrix(0.06172839506172839,0,0,0.06172839506172839,4.876543209876543,0)" xlink:href="#q"/><use transform="matrix(0.06172839506172839,0,0,0.06172839506172839,17.22222222222222,0)" xlink:href="#p"/><use transform="matrix(0.06172839506172839,0,0,0.06172839506172839,28.333333333333332,0)" xlink:href="#t"/><use transform="matrix(0.06172839506172839,0,0,0.06172839506172839,40.67901234567901,0)" xlink:href="#s"/><use transform="matrix(0.06172839506172839,0,0,0.06172839506172839,45.55555555555556,0)" xlink:href="#u"/><use transform="matrix(0.06172839506172839,0,0,0.06172839506172839,50.4320987654321,0)" xlink:href="#v"/><use transform="matrix(0.06172839506172839,0,0,0.06172839506172839,56.604938271604944,0)" xlink:href="#u"/><use transform="matrix(0.06172839506172839,0,0,0.06172839506172839,61.48148148148149,0)" xlink:href="#o"/><use transform="matrix(0.06172839506172839,0,0,0.06172839506172839,73.82716049382717,0)" xlink:href="#w"/></g><path fill="#333" d="M115-194c55 1 70 41 70 98S169 2 115 4C84 4 66-9 55-30l1 105H24l-1-265h31l2 30c10-21 28-34 59-34zm-8 174c40 0 45-34 45-75s-6-73-45-74c-42 0-51 32-51 76 0 43 10 73 51 73" id="x"/><g id="c"><use transform="matrix(0.06172839506172839,0,0,0.06172839506172839,0,0)" xlink:href="#x"/><use transform="matrix(0.06172839506172839,0,0,0.06172839506172839,12.345679012345679,0)" xlink:href="#n"/><use transform="matrix(0.06172839506172839,0,0,0.06172839506172839,19.691358024691358,0)" xlink:href="#o"/><use transform="matrix(0.06172839506172839,0,0,0.06172839506172839,32.03703703703704,0)" xlink:href="#x"/><use transform="matrix(0.06172839506172839,0,0,0.06172839506172839,44.382716049382715,0)" xlink:href="#n"/><use transform="matrix(0.06172839506172839,0,0,0.06172839506172839,51.72839506172839,0)" xlink:href="#q"/><use transform="matrix(0.06172839506172839,0,0,0.06172839506172839,64.07407407407408,0)" xlink:href="#p"/><use transform="matrix(0.06172839506172839,0,0,0.06172839506172839,75.18518518518519,0)" xlink:href="#o"/><use transform="matrix(0.06172839506172839,0,0,0.06172839506172839,87.53086419753087,0)" xlink:href="#w"/><use transform="matrix(0.06172839506172839,0,0,0.06172839506172839,98.64197530864199,0)" xlink:href="#w"/></g><path fill="#333" d="M145-31C134-9 116 4 85 4 32 4 16-35 15-94c0-59 17-99 70-100 32-1 48 14 60 33 0-11-1-24 2-32h30l-1 268h-32zM93-21c41 0 51-33 51-76s-8-73-50-73c-40 0-46 35-46 75s5 74 45 74" id="y"/><path fill="#333" d="M84 4C-5 8 30-112 23-190h32v120c0 31 7 50 39 49 72-2 45-101 50-169h31l1 190h-30c-1-10 1-25-2-33-11 22-28 36-60 37" id="z"/><path fill="#333" d="M117-194c89-4 53 116 60 194h-32v-121c0-31-8-49-39-48C34-167 62-67 57 0H25l-1-190h30c1 10-1 24 2 32 11-22 29-35 61-36" id="A"/><path fill="#333" d="M101-234c-31-9-42 10-38 44h38v23H63V0H32v-167H5v-23h27c-7-52 17-82 69-68v24" id="B"/><path fill="#333" d="M179-190L93 31C79 59 56 82 12 73V49c39 6 53-20 64-50L1-190h34L92-34l54-156h33" id="C"/><g id="d"><use transform="matrix(0.06172839506172839,0,0,0.06172839506172839,0,0)" xlink:href="#y"/><use transform="matrix(0.06172839506172839,0,0,0.06172839506172839,12.345679012345679,0)" xlink:href="#z"/><use transform="matrix(0.06172839506172839,0,0,0.06172839506172839,24.691358024691358,0)" xlink:href="#t"/><use transform="matrix(0.06172839506172839,0,0,0.06172839506172839,37.03703703703704,0)" xlink:href="#A"/><use transform="matrix(0.06172839506172839,0,0,0.06172839506172839,49.382716049382715,0)" xlink:href="#v"/><use transform="matrix(0.06172839506172839,0,0,0.06172839506172839,55.55555555555556,0)" xlink:href="#u"/><use transform="matrix(0.06172839506172839,0,0,0.06172839506172839,60.4320987654321,0)" xlink:href="#B"/><use transform="matrix(0.06172839506172839,0,0,0.06172839506172839,66.60493827160494,0)" xlink:href="#C"/></g><g id="e"><use transform="matrix(0.06172839506172839,0,0,0.06172839506172839,0,0)" xlink:href="#t"/><use transform="matrix(0.06172839506172839,0,0,0.06172839506172839,12.345679012345679,0)" xlink:href="#A"/><use transform="matrix(0.06172839506172839,0,0,0.06172839506172839,24.691358024691358,0)" xlink:href="#A"/><use transform="matrix(0.06172839506172839,0,0,0.06172839506172839,37.03703703703704,0)" xlink:href="#q"/><use transform="matrix(0.06172839506172839,0,0,0.06172839506172839,49.382716049382715,0)" xlink:href="#v"/><use transform="matrix(0.06172839506172839,0,0,0.06172839506172839,55.55555555555556,0)" xlink:href="#t"/><use transform="matrix(0.06172839506172839,0,0,0.06172839506172839,67.90123456790124,0)" xlink:href="#v"/><use transform="matrix(0.06172839506172839,0,0,0.06172839506172839,74.07407407407408,0)" xlink:href="#o"/></g><g id="f"><use transform="matrix(0.06172839506172839,0,0,0.06172839506172839,0,0)" xlink:href="#x"/><use transform="matrix(0.06172839506172839,0,0,0.06172839506172839,12.345679012345679,0)" xlink:href="#n"/><use transform="matrix(0.06172839506172839,0,0,0.06172839506172839,19.691358024691358,0)" xlink:href="#o"/><use transform="matrix(0.06172839506172839,0,0,0.06172839506172839,32.03703703703704,0)" xlink:href="#x"/><use transform="matrix(0.06172839506172839,0,0,0.06172839506172839,44.382716049382715,0)" xlink:href="#n"/><use transform="matrix(0.06172839506172839,0,0,0.06172839506172839,51.72839506172839,0)" xlink:href="#q"/><use transform="matrix(0.06172839506172839,0,0,0.06172839506172839,64.07407407407408,0)" xlink:href="#p"/><use transform="matrix(0.06172839506172839,0,0,0.06172839506172839,75.18518518518519,0)" xlink:href="#o"/><use transform="matrix(0.06172839506172839,0,0,0.06172839506172839,87.53086419753087,0)" xlink:href="#w"/><use transform="matrix(0.06172839506172839,0,0,0.06172839506172839,98.64197530864199,0)" xlink:href="#w"/></g><path fill="#333" d="M210-169c-67 3-38 105-44 169h-31v-121c0-29-5-50-35-48C34-165 62-65 56 0H25l-1-190h30c1 10-1 24 2 32 10-44 99-50 107 0 11-21 27-35 58-36 85-2 47 119 55 194h-31v-121c0-29-5-49-35-48" id="D"/><path fill="#333" d="M106-169C34-169 62-67 57 0H25v-261h32l-1 103c12-21 28-36 61-36 89 0 53 116 60 194h-32v-121c2-32-8-49-39-48" id="E"/><g id="g"><use transform="matrix(0.06172839506172839,0,0,0.06172839506172839,0,0)" xlink:href="#D"/><use transform="matrix(0.06172839506172839,0,0,0.06172839506172839,18.456790123456788,0)" xlink:href="#t"/><use transform="matrix(0.06172839506172839,0,0,0.06172839506172839,30.80246913580247,0)" xlink:href="#p"/><use transform="matrix(0.06172839506172839,0,0,0.06172839506172839,41.91358024691358,0)" xlink:href="#E"/><use transform="matrix(0.06172839506172839,0,0,0.06172839506172839,54.25925925925926,0)" xlink:href="#u"/><use transform="matrix(0.06172839506172839,0,0,0.06172839506172839,59.135802469135804,0)" xlink:href="#A"/><use transform="matrix(0.06172839506172839,0,0,0.06172839506172839,71.48148148148148,0)" xlink:href="#o"/></g><path fill="#333" d="M177-190C167-65 218 103 67 71c-23-6-38-20-44-43l32-5c15 47 100 32 89-28v-30C133-14 115 1 83 1 29 1 15-40 15-95c0-56 16-97 71-98 29-1 48 16 59 35 1-10 0-23 2-32h30zM94-22c36 0 50-32 50-73 0-42-14-75-50-75-39 0-46 34-46 75s6 73 46 73" id="F"/><g id="h"><use transform="matrix(0.06172839506172839,0,0,0.06172839506172839,0,0)" xlink:href="#s"/><use transform="matrix(0.06172839506172839,0,0,0.06172839506172839,4.876543209876543,0)" xlink:href="#o"/><use transform="matrix(0.06172839506172839,0,0,0.06172839506172839,17.22222222222222,0)" xlink:href="#t"/><use transform="matrix(0.06172839506172839,0,0,0.06172839506172839,29.5679012345679,0)" xlink:href="#n"/><use transform="matrix(0.06172839506172839,0,0,0.06172839506172839,36.913580246913575,0)" xlink:href="#A"/><use transform="matrix(0.06172839506172839,0,0,0.06172839506172839,49.25925925925925,0)" xlink:href="#u"/><use transform="matrix(0.06172839506172839,0,0,0.06172839506172839,54.1358024691358,0)" xlink:href="#A"/><use transform="matrix(0.06172839506172839,0,0,0.06172839506172839,66.48148148148148,0)" xlink:href="#F"/></g><g id="i"><use transform="matrix(0.06172839506172839,0,0,0.06172839506172839,0,0)" xlink:href="#x"/><use transform="matrix(0.06172839506172839,0,0,0.06172839506172839,12.345679012345679,0)" xlink:href="#n"/><use transform="matrix(0.06172839506172839,0,0,0.06172839506172839,19.691358024691358,0)" xlink:href="#o"/><use transform="matrix(0.06172839506172839,0,0,0.06172839506172839,32.03703703703704,0)" xlink:href="#r"/><use transform="matrix(0.06172839506172839,0,0,0.06172839506172839,44.382716049382715,0)" xlink:href="#u"/><use transform="matrix(0.06172839506172839,0,0,0.06172839506172839,49.25925925925926,0)" xlink:href="#p"/><use transform="matrix(0.06172839506172839,0,0,0.06172839506172839,60.37037037037037,0)" xlink:href="#v"/></g><path fill="#333" d="M30-248c87 1 191-15 191 75 0 78-77 80-158 76V0H30v-248zm33 125c57 0 124 11 124-50 0-59-68-47-124-48v98" id="G"/><g id="j"><use transform="matrix(0.06172839506172839,0,0,0.06172839506172839,0,0)" xlink:href="#G"/><use transform="matrix(0.06172839506172839,0,0,0.06172839506172839,14.814814814814813,0)" xlink:href="#n"/><use transform="matrix(0.06172839506172839,0,0,0.06172839506172839,22.160493827160494,0)" xlink:href="#o"/><use transform="matrix(0.06172839506172839,0,0,0.06172839506172839,34.50617283950617,0)" xlink:href="#r"/><use transform="matrix(0.06172839506172839,0,0,0.06172839506172839,46.85185185185185,0)" xlink:href="#u"/><use transform="matrix(0.06172839506172839,0,0,0.06172839506172839,51.72839506172839,0)" xlink:href="#p"/><use transform="matrix(0.06172839506172839,0,0,0.06172839506172839,62.839506172839506,0)" xlink:href="#v"/><use transform="matrix(0.06172839506172839,0,0,0.06172839506172839,69.01234567901234,0)" xlink:href="#u"/><use transform="matrix(0.06172839506172839,0,0,0.06172839506172839,73.88888888888889,0)" xlink:href="#q"/><use transform="matrix(0.06172839506172839,0,0,0.06172839506172839,86.23456790123457,0)" xlink:href="#A"/></g><g id="k"><use transform="matrix(0.06172839506172839,0,0,0.06172839506172839,0,0)" xlink:href="#x"/><use transform="matrix(0.06172839506172839,0,0,0.06172839506172839,12.345679012345679,0)" xlink:href="#E"/><use transform="matrix(0.06172839506172839,0,0,0.06172839506172839,24.691358024691358,0)" xlink:href="#t"/><use transform="matrix(0.06172839506172839,0,0,0.06172839506172839,37.03703703703704,0)" xlink:href="#w"/><use transform="matrix(0.06172839506172839,0,0,0.06172839506172839,48.14814814814815,0)" xlink:href="#o"/></g><path fill="#333" d="M30 0v-248h33v221h125V0H30" id="H"/><g id="l"><use transform="matrix(0.06172839506172839,0,0,0.06172839506172839,0,0)" xlink:href="#H"/><use transform="matrix(0.06172839506172839,0,0,0.06172839506172839,12.345679012345679,0)" xlink:href="#o"/><use transform="matrix(0.06172839506172839,0,0,0.06172839506172839,24.691358024691358,0)" xlink:href="#t"/><use transform="matrix(0.06172839506172839,0,0,0.06172839506172839,37.03703703703704,0)" xlink:href="#n"/><use transform="matrix(0.06172839506172839,0,0,0.06172839506172839,44.382716049382715,0)" xlink:href="#A"/><use transform="matrix(0.06172839506172839,0,0,0.06172839506172839,56.72839506172839,0)" xlink:href="#u"/><use transform="matrix(0.06172839506172839,0,0,0.06172839506172839,61.60493827160494,0)" xlink:href="#A"/><use transform="matrix(0.06172839506172839,0,0,0.06172839506172839,73.95061728395062,0)" xlink:href="#F"/></g><g id="m"><use transform="matrix(0.06172839506172839,0,0,0.06172839506172839,0,0)" xlink:href="#G"/><use transform="matrix(0.06172839506172839,0,0,0.06172839506172839,14.814814814814813,0)" xlink:href="#n"/><use transform="matrix(0.06172839506172839,0,0,0.06172839506172839,22.160493827160494,0)" xlink:href="#o"/><use transform="matrix(0.06172839506172839,0,0,0.06172839506172839,34.50617283950617,0)" xlink:href="#r"/><use transform="matrix(0.06172839506172839,0,0,0.06172839506172839,46.85185185185185,0)" xlink:href="#u"/><use transform="matrix(0.06172839506172839,0,0,0.06172839506172839,51.72839506172839,0)" xlink:href="#p"/><use transform="matrix(0.06172839506172839,0,0,0.06172839506172839,62.839506172839506,0)" xlink:href="#v"/><use transform="matrix(0.06172839506172839,0,0,0.06172839506172839,69.01234567901234,0)" xlink:href="#u"/><use transform="matrix(0.06172839506172839,0,0,0.06172839506172839,73.88888888888889,0)" xlink:href="#q"/><use transform="matrix(0.06172839506172839,0,0,0.06172839506172839,86.23456790123457,0)" xlink:href="#A"/><use transform="matrix(0.06172839506172839,0,0,0.06172839506172839,98.58024691358025,0)" xlink:href="#w"/></g></defs></g></svg>